<?xml version="1.0" encoding="UTF-8" standalone="no"?>
<!-- Created with Inkscape (http://www.inkscape.org/) -->

<svg
   width="119.19035mm"
   height="99.212997mm"
   viewBox="0 0 119.19035 99.212995"
   version="1.1"
   id="svg291929"
   inkscape:version="1.1.2 (0a00cf5339, 2022-02-04)"
   sodipodi:docname="logo-backgr-white.svg"
   xmlns:inkscape="http://www.inkscape.org/namespaces/inkscape"
   xmlns:sodipodi="http://sodipodi.sourceforge.net/DTD/sodipodi-0.dtd"
   xmlns:xlink="http://www.w3.org/1999/xlink"
   xmlns="http://www.w3.org/2000/svg"
   xmlns:svg="http://www.w3.org/2000/svg">
  <sodipodi:namedview
     id="namedview291931"
     pagecolor="#ffffff"
     bordercolor="#666666"
     borderopacity="1.0"
     inkscape:pageshadow="2"
     inkscape:pageopacity="1"
     inkscape:pagecheckerboard="false"
     inkscape:document-units="mm"
     showgrid="false"
     inkscape:zoom="1.7184441"
     inkscape:cx="316.56543"
     inkscape:cy="183.01439"
     inkscape:window-width="1920"
     inkscape:window-height="1031"
     inkscape:window-x="0"
     inkscape:window-y="25"
     inkscape:window-maximized="1"
     inkscape:current-layer="layer1-3"
     fit-margin-top="0"
     fit-margin-left="0"
     fit-margin-right="0"
     fit-margin-bottom="0"
     showborder="true"
     inkscape:showpageshadow="false" />
  <defs
     id="defs291926">
    <linearGradient
       inkscape:collect="always"
       id="linearGradient190122">
      <stop
         style="stop-color:#941e1e;stop-opacity:1;"
         offset="0"
         id="stop190118" />
      <stop
         style="stop-color:#941e1e;stop-opacity:0;"
         offset="1"
         id="stop190120" />
    </linearGradient>
    <rect
       x="506.24316"
       y="614.52625"
       width="64.942932"
       height="40.460541"
       id="rect96710" />
    <rect
       x="193.56531"
       y="398.97653"
       width="23.980461"
       height="43.536472"
       id="rect4982" />
    <clipPath
       clipPathUnits="userSpaceOnUse"
       id="clipPath164882">
      <rect
         style="fill:none;fill-opacity:1;stroke:#00bb00;stroke-width:0.0452067;stroke-miterlimit:4;stroke-dasharray:none;stroke-opacity:1"
         id="rect164884"
         width="49.498821"
         height="46.78035"
         x="27.19998"
         y="28.572645"
         ry="0.45669192" />
    </clipPath>
    <linearGradient
       inkscape:collect="always"
       xlink:href="#linearGradient190122"
       id="linearGradient190124"
       x1="49.47382"
       y1="114.46528"
       x2="55.467922"
       y2="114.46528"
       gradientUnits="userSpaceOnUse" />
  </defs>
  <g
     inkscape:label="Layer 1"
     inkscape:groupmode="layer"
     id="layer1"
     transform="translate(-39.413699,-166.41236)">
    <g
       inkscape:label="Layer 1"
       id="layer1-3"
       transform="translate(-19.618622,-43.694852)">
      <rect
         style="fill:#ffffff;stroke:none;stroke-width:0.358132"
         id="rect677"
         width="121.28924"
         height="101.93382"
         x="57.592808"
         y="209.06691"
         ry="0.48710501" />
      <g
         id="g149629"
         style="stroke:#00bd00;stroke-width:0.26;stroke-miterlimit:4;stroke-dasharray:none;stroke-opacity:1"
         transform="translate(10.170173,105.40595)">
        <path
           style="fill:none;stroke:#000000;stroke-width:2.56;stroke-linecap:butt;stroke-linejoin:miter;stroke-miterlimit:4;stroke-dasharray:none;stroke-opacity:1"
           d="m 117.35576,178.17639 21.97154,21.72296 c 7.51867,7.49186 12.89647,-2.32564 7.42134,-6.59253 l -22.3068,-22.23659 -0.13936,-0.19863"
           id="path147616"
           sodipodi:nodetypes="ccccc" />
        <path
           style="fill:none;stroke:#000000;stroke-width:2.56;stroke-linecap:butt;stroke-linejoin:miter;stroke-miterlimit:4;stroke-dasharray:none;stroke-opacity:1"
           d="m 124.33507,185.01823 c 6.96798,-7.01666 6.90578,-7.16021 6.90578,-7.16021"
           id="path149512" />
      </g>
      <text
         xml:space="preserve"
         style="font-style:normal;font-variant:normal;font-weight:normal;font-stretch:normal;font-size:11.6417px;line-height:1.25;font-family:sans-serif;-inkscape-font-specification:sans-serif;fill:#009300;fill-opacity:1;stroke:#009300;stroke-width:0.345872;stroke-miterlimit:4;stroke-dasharray:none;stroke-opacity:1"
         x="80.675354"
         y="316.302"
         id="text6110-8-2-9-83-8"
         transform="scale(1.037271,0.96406822)"><tspan
           sodipodi:role="line"
           id="tspan6108-1-9-0-1-9"
           style="font-style:normal;font-variant:normal;font-weight:normal;font-stretch:normal;font-size:11.6417px;font-family:sans-serif;-inkscape-font-specification:sans-serif;fill:#009300;fill-opacity:1;stroke:#009300;stroke-width:0.345872;stroke-miterlimit:4;stroke-dasharray:none;stroke-opacity:1"
           x="80.675354"
           y="316.302">DSC</tspan></text>
      <text
         xml:space="preserve"
         style="font-style:normal;font-variant:normal;font-weight:normal;font-stretch:normal;font-size:14.3076px;line-height:1.25;font-family:sans-serif;-inkscape-font-specification:sans-serif;fill:#941e1e;fill-opacity:1;stroke:#941e1e;stroke-width:0.345872;stroke-miterlimit:4;stroke-dasharray:none;stroke-opacity:1"
         x="90.578491"
         y="228.74374"
         id="text6110-8"
         transform="scale(1.037271,0.96406822)"><tspan
           sodipodi:role="line"
           id="tspan6108-1"
           style="font-style:normal;font-variant:normal;font-weight:normal;font-stretch:normal;font-size:14.3076px;font-family:sans-serif;-inkscape-font-specification:sans-serif;fill:#941e1e;fill-opacity:1;stroke:#941e1e;stroke-width:0.345872;stroke-miterlimit:4;stroke-dasharray:none;stroke-opacity:1"
           x="90.578491"
           y="228.74374">O</tspan></text>
      <text
         xml:space="preserve"
         style="font-style:normal;font-variant:normal;font-weight:normal;font-stretch:normal;font-size:14.3076px;line-height:1.25;font-family:sans-serif;-inkscape-font-specification:sans-serif;fill:#941e1e;fill-opacity:1;stroke:#941e1e;stroke-width:0.345872;stroke-miterlimit:4;stroke-dasharray:none;stroke-opacity:1"
         x="131.48788"
         y="228.54779"
         id="text6110-8-2"
         transform="scale(1.037271,0.96406822)"><tspan
           sodipodi:role="line"
           id="tspan6108-1-9"
           style="font-style:normal;font-variant:normal;font-weight:normal;font-stretch:normal;font-size:14.3076px;font-family:sans-serif;-inkscape-font-specification:sans-serif;fill:#941e1e;fill-opacity:1;stroke:#941e1e;stroke-width:0.345872;stroke-miterlimit:4;stroke-dasharray:none;stroke-opacity:1"
           x="131.48788"
           y="228.54779">L</tspan></text>
      <text
         xml:space="preserve"
         style="font-style:normal;font-variant:normal;font-weight:normal;font-stretch:normal;font-size:14.3076px;line-height:1.25;font-family:sans-serif;-inkscape-font-specification:sans-serif;fill:#941e1e;fill-opacity:1;stroke:#941e1e;stroke-width:0.345872;stroke-miterlimit:4;stroke-dasharray:none;stroke-opacity:1"
         x="161.48029"
         y="228.75342"
         id="text6110-8-2-9"
         transform="scale(1.037271,0.96406822)"><tspan
           sodipodi:role="line"
           id="tspan6108-1-9-0"
           style="font-style:normal;font-variant:normal;font-weight:normal;font-stretch:normal;font-size:14.3076px;font-family:sans-serif;-inkscape-font-specification:sans-serif;fill:#941e1e;fill-opacity:1;stroke:#941e1e;stroke-width:0.345872;stroke-miterlimit:4;stroke-dasharray:none;stroke-opacity:1"
           x="161.48029"
           y="228.75342">D</tspan></text>
      <text
         xml:space="preserve"
         style="font-style:normal;font-variant:normal;font-weight:normal;font-stretch:normal;font-size:14.3076px;line-height:1.25;font-family:sans-serif;-inkscape-font-specification:sans-serif;fill:#941e1e;fill-opacity:1;stroke:#941e1e;stroke-width:0.345872;stroke-miterlimit:4;stroke-dasharray:none;stroke-opacity:1"
         x="161.90445"
         y="259.46985"
         id="text6110-8-2-9-8"
         transform="scale(1.037271,0.96406822)"><tspan
           sodipodi:role="line"
           id="tspan6108-1-9-0-8"
           style="font-style:normal;font-variant:normal;font-weight:normal;font-stretch:normal;font-size:14.3076px;font-family:sans-serif;-inkscape-font-specification:sans-serif;fill:#941e1e;fill-opacity:1;stroke:#941e1e;stroke-width:0.345872;stroke-miterlimit:4;stroke-dasharray:none;stroke-opacity:1"
           x="161.90445"
           y="259.46985">A</tspan></text>
      <text
         xml:space="preserve"
         style="font-style:normal;font-variant:normal;font-weight:normal;font-stretch:normal;font-size:14.3076px;line-height:1.25;font-family:sans-serif;-inkscape-font-specification:sans-serif;fill:#941e1e;fill-opacity:1;stroke:#941e1e;stroke-width:0.345872;stroke-miterlimit:4;stroke-dasharray:none;stroke-opacity:1"
         x="161.88841"
         y="320.13403"
         id="text6110-8-2-9-8-5"
         transform="scale(1.037271,0.96406822)"><tspan
           sodipodi:role="line"
           id="tspan6108-1-9-0-8-0"
           style="font-style:normal;font-variant:normal;font-weight:normal;font-stretch:normal;font-size:14.3076px;font-family:sans-serif;-inkscape-font-specification:sans-serif;fill:#941e1e;fill-opacity:1;stroke:#941e1e;stroke-width:0.345872;stroke-miterlimit:4;stroke-dasharray:none;stroke-opacity:1"
           x="161.88841"
           y="320.13403">A</tspan></text>
      <text
         xml:space="preserve"
         style="font-style:normal;font-variant:normal;font-weight:normal;font-stretch:normal;font-size:14.3076px;line-height:1.25;font-family:sans-serif;-inkscape-font-specification:sans-serif;fill:#941e1e;fill-opacity:1;stroke:#941e1e;stroke-width:0.345872;stroke-miterlimit:4;stroke-dasharray:none;stroke-opacity:1"
         x="57.119823"
         y="298.89874"
         id="text59778-9"
         transform="scale(1.037271,0.96406822)"><tspan
           sodipodi:role="line"
           id="tspan59776-4"
           style="font-style:normal;font-variant:normal;font-weight:normal;font-stretch:normal;font-size:14.3076px;font-family:sans-serif;-inkscape-font-specification:sans-serif;fill:#941e1e;fill-opacity:1;stroke:#941e1e;stroke-width:0.345872;stroke-miterlimit:4;stroke-dasharray:none;stroke-opacity:1"
           x="57.119823"
           y="298.89874">T</tspan></text>
      <text
         xml:space="preserve"
         style="font-style:normal;font-variant:normal;font-weight:normal;font-stretch:normal;font-size:14.3076px;line-height:1.25;font-family:sans-serif;-inkscape-font-specification:sans-serif;fill:#941e1e;fill-opacity:1;stroke:#941e1e;stroke-width:0.345872;stroke-miterlimit:4;stroke-dasharray:none;stroke-opacity:1"
         x="162.38779"
         y="289.88507"
         id="text59778-9-9"
         transform="scale(1.037271,0.96406822)"><tspan
           sodipodi:role="line"
           id="tspan59776-4-6"
           style="font-style:normal;font-variant:normal;font-weight:normal;font-stretch:normal;font-size:14.3076px;font-family:sans-serif;-inkscape-font-specification:sans-serif;fill:#941e1e;fill-opacity:1;stroke:#941e1e;stroke-width:0.345872;stroke-miterlimit:4;stroke-dasharray:none;stroke-opacity:1"
           x="162.38779"
           y="289.88507">T</tspan></text>
      <text
         xml:space="preserve"
         style="font-style:normal;font-variant:normal;font-weight:normal;font-stretch:normal;font-size:14.3076px;line-height:1.25;font-family:sans-serif;-inkscape-font-specification:sans-serif;fill:#000000;fill-opacity:1;stroke:none;stroke-width:0.345872;stroke-miterlimit:4;stroke-dasharray:none"
         x="59.924816"
         y="171.5515"
         id="text6110-6"
         transform="scale(1.037271,0.96406822)"><tspan
           sodipodi:role="line"
           id="tspan6108-3"
           style="font-style:normal;font-variant:normal;font-weight:normal;font-stretch:normal;font-size:14.3076px;font-family:sans-serif;-inkscape-font-specification:sans-serif;stroke-width:0.345872;stroke-miterlimit:4;stroke-dasharray:none"
           x="59.924816"
           y="171.5515" /><tspan
           sodipodi:role="line"
           style="font-style:normal;font-variant:normal;font-weight:normal;font-stretch:normal;font-size:14.3076px;font-family:sans-serif;-inkscape-font-specification:sans-serif;stroke-width:0.345872;stroke-miterlimit:4;stroke-dasharray:none"
           x="59.924816"
           y="189.436"
           id="tspan65795" /></text>
      <text
         xml:space="preserve"
         transform="matrix(0.26458333,0,0,0.26458333,10.920827,-16.918215)"
         id="text4980"
         style="font-style:normal;font-variant:normal;font-weight:normal;font-stretch:normal;font-size:40px;line-height:1.25;font-family:sans-serif;-inkscape-font-specification:sans-serif;white-space:pre;shape-inside:url(#rect4982);fill:#000000;fill-opacity:1;stroke:none" />
      <text
         xml:space="preserve"
         style="font-style:normal;font-variant:normal;font-weight:normal;font-stretch:normal;font-size:14.3076px;line-height:1.25;font-family:sans-serif;-inkscape-font-specification:sans-serif;fill:#941e1e;fill-opacity:1;stroke:#941e1e;stroke-width:0.345872;stroke-miterlimit:4;stroke-dasharray:none;stroke-opacity:1"
         x="57.874344"
         y="229.01495"
         id="text6110"
         transform="scale(1.037271,0.96406822)"><tspan
           sodipodi:role="line"
           id="tspan6108"
           style="font-style:normal;font-variant:normal;font-weight:normal;font-stretch:normal;font-size:14.3076px;font-family:sans-serif;-inkscape-font-specification:sans-serif;fill:#941e1e;fill-opacity:1;stroke:#941e1e;stroke-width:0.345872;stroke-miterlimit:4;stroke-dasharray:none;stroke-opacity:1"
           x="57.874344"
           y="229.01495">F</tspan></text>
      <text
         xml:space="preserve"
         style="font-style:normal;font-variant:normal;font-weight:normal;font-stretch:normal;font-size:14.3076px;line-height:1.25;font-family:sans-serif;-inkscape-font-specification:sans-serif;fill:#941e1e;fill-opacity:1;stroke:#941e1e;stroke-width:0.345872;stroke-miterlimit:4;stroke-dasharray:none;stroke-opacity:1"
         x="59.559452"
         y="264.15341"
         id="text59778"
         transform="scale(1.037271,0.96406822)"><tspan
           sodipodi:role="line"
           id="tspan59776"
           style="font-style:normal;font-variant:normal;font-weight:normal;font-stretch:normal;font-size:14.3076px;font-family:sans-serif;-inkscape-font-specification:sans-serif;fill:#941e1e;fill-opacity:1;stroke:#941e1e;stroke-width:0.345872;stroke-miterlimit:4;stroke-dasharray:none;stroke-opacity:1"
           x="59.559452"
           y="264.15341">I</tspan></text>
      <text
         xml:space="preserve"
         transform="matrix(0.26458333,0,0,0.26458333,10.920827,-16.918215)"
         id="text96708"
         style="font-style:normal;font-weight:normal;font-size:40px;line-height:1.25;font-family:sans-serif;white-space:pre;shape-inside:url(#rect96710);fill:#000000;fill-opacity:1;stroke:none"><tspan
           x="506.24219"
           y="690.37695"
           id="tspan2118"><tspan
             dx="0 27.929688"
             id="tspan2116">CD</tspan></tspan></text>
      <text
         xml:space="preserve"
         style="font-style:normal;font-variant:normal;font-weight:normal;font-stretch:normal;font-size:11.6417px;line-height:1.25;font-family:sans-serif;-inkscape-font-specification:sans-serif;fill:#009300;fill-opacity:1;stroke:#009300;stroke-width:0.345872;stroke-miterlimit:4;stroke-dasharray:none;stroke-opacity:1"
         x="139.70534"
         y="285.87619"
         id="text6110-8-2-9-83"
         transform="scale(1.037271,0.96406822)"><tspan
           sodipodi:role="line"
           id="tspan6108-1-9-0-1"
           style="font-style:normal;font-variant:normal;font-weight:normal;font-stretch:normal;font-size:11.6417px;font-family:sans-serif;-inkscape-font-specification:sans-serif;fill:#009300;fill-opacity:1;stroke:#009300;stroke-width:0.345872;stroke-miterlimit:4;stroke-dasharray:none;stroke-opacity:1"
           x="139.70534"
           y="285.87619">CD</tspan></text>
      <ellipse
         style="fill:none;fill-opacity:1;stroke:#000000;stroke-width:3.355;stroke-miterlimit:4;stroke-dasharray:none;stroke-opacity:1"
         id="path144293"
         cx="108.61012"
         cy="257.34921"
         rx="32.005009"
         ry="31.79496" />
      <ellipse
         style="fill:none;stroke:#000000;stroke-width:2.55424;stroke-miterlimit:4;stroke-dasharray:none;stroke-opacity:1"
         id="ellipse144519"
         cx="108.59818"
         cy="257.44934"
         rx="25.17918"
         ry="25.109165" />
      <ellipse
         style="fill:#000000;fill-opacity:1;stroke:#000000;stroke-width:0.0968482;stroke-miterlimit:4;stroke-dasharray:none;stroke-opacity:1"
         id="path153600"
         cx="127.14685"
         cy="257.35022"
         rx="1.3091173"
         ry="1.2206029" />
      <path
         style="fill:#000000;fill-opacity:1;stroke:none;stroke-width:0.05;stroke-linecap:butt;stroke-linejoin:miter;stroke-miterlimit:4;stroke-dasharray:none;stroke-opacity:1"
         d="m 109.46676,240.27315 c 0,0 -0.99756,0.007 -1.53741,-0.44439 -0.85967,-0.71929 -0.62563,-2.37541 1.86787,-2.35378 9.13252,0.96923 13.85469,5.42887 16.68225,11.38792 0.70645,1.41838 0.89187,2.26089 0.28266,2.76692 -0.98957,0.82198 -1.93207,-0.18942 -2.22625,-0.78962 -0.14128,-0.28823 -0.35483,-0.56333 -0.48252,-0.90745 -2.79241,-4.79284 -6.14317,-8.83855 -14.5866,-9.6596 z"
         id="path153810"
         sodipodi:nodetypes="csccsscc" />
      <path
         style="fill:#000000;fill-opacity:1;stroke:#000000;stroke-width:0.0871142;stroke-opacity:1"
         d="m 117.62069,276.61455 c -0.30636,-0.0343 -0.80371,-0.14878 -1.10506,-0.25549 -0.77553,-0.27449 -2.5058,-1.2579 -3.11113,-1.76817 -0.72356,-0.60998 -1.36397,-1.59703 -1.61872,-2.49501 l -0.20134,-0.70963 -0.51833,0.30726 c -0.4623,0.27404 -0.59197,0.3111 -1.19956,0.34298 -0.49775,0.0262 -0.79418,-0.008 -1.10057,-0.12572 -0.49683,-0.19144 -4.77415,-2.63571 -5.07958,-2.90273 -0.63216,-0.55268 -1.01633,-1.38485 -0.95581,-2.07038 0.0184,-0.20834 0.0221,-0.38754 0.008,-0.39826 -0.0138,-0.0112 -0.2285,0.0816 -0.47694,0.20496 -0.5673,0.28189 -1.35191,0.36536 -1.93992,0.20641 -0.406754,-0.10994 -4.2734,-2.23819 -5.106449,-2.81065 -0.208449,-0.14322 -0.510172,-0.4449 -0.670501,-0.6704 -0.246692,-0.34695 -0.307635,-0.52161 -0.396405,-1.13602 -0.05769,-0.39932 -0.08448,-0.81754 -0.0595,-0.92937 0.04485,-0.20083 0.03982,-0.2019 -0.412147,-0.0894 -1.143465,0.28466 -2.332241,0.22718 -3.394976,-0.16414 -0.602656,-0.22194 -2.851309,-1.53208 -3.355073,-1.95482 -0.912527,-0.76574 -1.528941,-2.14658 -1.4718,-3.29706 0.04061,-0.81749 0.405409,-1.17184 1.01986,-0.99067 0.388665,0.11455 0.538576,0.35266 0.528683,0.83951 -0.01954,0.96414 0.310792,1.82714 0.873784,2.28242 l 0.258146,0.20878 0.332119,-0.23352 c 0.182666,-0.12844 0.912694,-0.65364 1.622283,-1.1671 0.709589,-0.51347 1.435908,-1.03429 1.614043,-1.15742 0.178134,-0.12309 0.90429,-0.64132 1.61368,-1.15157 1.355364,-0.97491 1.548921,-1.08271 2.196042,-1.2231 0.811322,-0.17602 1.452596,0.0428 3.225753,1.10219 1.365268,0.81545 1.813478,1.36107 1.955728,2.38074 0.0522,0.37388 -0.10005,1.81011 -0.36562,3.44978 -0.0419,0.25846 -0.0529,0.48779 -0.0247,0.50962 0.0283,0.0219 0.35232,-0.18387 0.72004,-0.45712 2.38168,-1.76988 2.85708,-2.01262 3.79523,-1.93778 0.61787,0.0493 0.88151,0.14673 1.77059,0.6546 1.93065,1.10285 2.32392,1.4519 2.65749,2.35871 0.18762,0.51008 0.162,1.11598 -0.13267,3.1368 -0.10895,0.74718 -0.18761,1.36848 -0.17484,1.38066 0.0222,0.0212 0.851,-0.56689 1.97878,-1.40385 1.51576,-1.12488 2.42967,-1.33138 3.54362,-0.80074 0.21056,0.10018 0.39299,0.16882 0.4054,0.15222 0.0123,-0.0166 -0.12427,-0.26909 -0.30373,-0.56115 -2.11228,-3.43744 -2.26936,-3.74344 -2.25295,-4.38899 0.0118,-0.4656 0.18645,-1.07257 0.42254,-1.46873 l 0.18127,-0.30415 -0.20253,0.0129 c -0.69368,0.0439 -1.41253,-0.19293 -2.00748,-0.66125 -0.32927,-0.25918 -0.64994,-0.72643 -1.82645,-2.66133 l -1.42705,-2.34694 -0.1077,-0.76909 c -0.12239,-0.87398 -0.0542,-1.17796 0.41425,-1.84707 l 0.28661,-0.40932 -0.53432,-0.13093 c -1.20201,-0.29463 -2.40189,-1.11859 -3.10433,-2.13172 -0.20103,-0.28992 -0.64133,-0.98731 -0.97845,-1.54974 -0.56416,-0.94119 -0.62529,-1.08746 -0.7679,-1.8374 -0.18306,-0.96262 -0.15439,-1.54131 0.11476,-2.31609 0.21472,-0.61813 0.75554,-1.31436 1.04293,-1.34263 0.24975,-0.0245 0.69659,0.15529 0.78597,0.31642 0.16832,0.30332 0.14595,0.68471 -0.0586,1.00007 -0.48733,0.75121 -0.59846,1.68094 -0.29546,2.47187 0.083,0.21674 0.47179,0.91558 0.86392,1.55298 0.57944,0.94187 0.81481,1.24371 1.2568,1.61164 0.68677,0.57174 1.5193,0.87923 2.33646,0.86302 l 0.56968,-0.0113 1.20329,-1.49432 c 0.66182,-0.82187 1.1992,-1.52358 1.19419,-1.55939 -0.005,-0.0357 -0.2619,-0.0397 -0.57074,-0.009 -0.51958,0.0511 -0.58134,0.0373 -0.8252,-0.18537 -0.33524,-0.30599 -0.37019,-0.56599 -0.1255,-0.93336 l 0.19428,-0.29169 1.28299,-0.0985 c 1.15851,-0.089 1.32678,-0.0821 1.73437,0.0703 0.54487,0.20371 1.14847,0.69136 1.45219,1.17323 1.43751,2.28075 1.65764,2.84981 1.47423,3.81109 -0.0857,0.44923 -0.22388,0.66411 -1.32282,2.05706 -0.6749,0.85546 -1.22338,1.58188 -1.21885,1.61427 0.004,0.0324 0.89439,-0.0283 1.97746,-0.13483 2.16818,-0.21327 2.38463,-0.19656 3.1593,0.24389 0.5447,0.30967 0.81864,0.64672 1.6627,2.04566 0.65269,1.08182 0.72808,1.2497 0.80476,1.79176 0.14119,0.99828 -0.0425,1.4015 -1.43826,3.15014 l -1.18305,1.48257 1.98154,-0.1949 c 1.82534,-0.17955 2.02295,-0.18409 2.50687,-0.0576 0.53142,0.1388 1.10475,0.49872 1.44403,0.90637 0.10199,0.12256 0.50395,0.74575 0.89322,1.38486 0.65129,1.06936 0.71539,1.21313 0.80347,1.80235 0.17573,1.17559 0.1981,1.13573 -2.60606,4.64265 -2.76025,3.452 -2.62496,3.19046 -1.89777,3.66903 0.73502,0.48372 1.75189,0.70879 2.75602,0.61002 0.59521,-0.0585 0.93858,0.1591 1.00555,0.63746 0.0297,0.21186 -0.0139,0.37834 -0.14269,0.53774 -0.16787,0.2088 -0.25667,0.23791 -0.92715,0.30386 -1.44778,0.1424 -2.66614,-0.21046 -3.84968,-1.11486 -0.59101,-0.45163 -0.8089,-0.68942 -1.27212,-1.38829 -0.64471,-0.97273 -1.24922,-2.14058 -1.34601,-2.60039 -0.0367,-0.17483 -0.0907,-0.31556 -0.11973,-0.31268 -0.0291,0.003 -0.0847,0.29097 -0.12386,0.64026 -0.0391,0.34928 -0.0913,0.754 -0.11598,0.89937 -0.0712,0.41963 -0.63654,4.87812 -0.62715,4.94545 0.0167,0.11897 0.83864,0.18829 1.48205,0.12507 0.68573,-0.0674 1.4008,-0.35264 1.97726,-0.78861 0.36915,-0.27918 0.59723,-0.29244 0.96222,-0.0559 0.35886,0.23254 0.45549,0.63065 0.23839,0.98229 -0.20509,0.33224 -1.23789,0.95068 -1.95613,1.17135 -0.7491,0.23016 -1.4284,0.29697 -2.17782,0.21423 z m -1.84181,-3.67379 c 0.15987,-1.30072 0.33362,-2.64308 0.51704,-3.99259 0.26446,-1.94558 0.26274,-1.86167 0.0448,-2.25579 -0.16589,-0.3001 -0.37199,-0.45788 -1.29618,-0.99242 -0.60442,-0.34958 -1.12018,-0.6335 -1.14613,-0.63096 -0.0258,0.002 -0.0706,0.17261 -0.0989,0.37791 -0.65838,4.75679 -0.70057,5.21513 -0.55328,6.01034 0.18375,0.99187 0.53552,1.51381 1.52329,2.26007 0.40837,0.3085 0.76977,0.52635 0.80315,0.48411 0.0334,-0.0421 0.12608,-0.60957 0.20615,-1.26067 z m 7.45656,-6.64534 c 1.95839,-2.44363 1.93739,-2.36874 1.05272,-3.75454 -0.16238,-0.25435 -0.29707,-0.47567 -0.29934,-0.49179 -0.003,-0.0162 -0.10835,-0.19718 -0.23579,-0.4023 l -0.23169,-0.37297 -1.74518,2.18075 c -0.95986,1.19942 -1.83842,2.34252 -1.95233,2.54026 -0.57073,0.99054 -0.4273,2.62533 0.32376,3.69066 l 0.16472,0.23369 0.6799,-0.83654 c 0.37396,-0.46011 1.38339,-1.71436 2.24323,-2.78722 z m -12.31485,3.64732 c 0.4043,-0.28758 0.74441,-0.53088 0.75579,-0.54071 0.0233,-0.0202 0.26851,-1.76387 0.42609,-3.03016 0.0572,-0.45823 0.0859,-0.84695 0.0649,-0.86371 -0.0214,-0.0167 -0.17407,0.0799 -0.33932,0.21473 -0.16527,0.13488 -0.60993,0.46119 -0.98813,0.72512 -0.37823,0.26394 -1.02112,0.72758 -1.42868,1.03029 -0.82365,0.61177 -0.72975,0.41282 -0.94989,2.01275 l -0.077,0.55947 0.23489,0.14546 c 0.44249,0.27397 0.96924,0.41474 1.27444,0.34054 0.1605,-0.0389 0.62262,-0.30623 1.02692,-0.59378 z m -3.97215,-0.84357 c -0.002,-0.0174 0.19883,-1.5766 0.44725,-3.46487 0.24843,-1.88825 0.43672,-3.54 0.41847,-3.67058 -0.061,-0.43573 -0.40058,-0.74562 -1.52468,-1.39139 -1.06008,-0.60897 -1.10959,-0.62771 -1.14091,-0.43187 -0.0181,0.1126 -0.11166,0.83624 -0.2081,1.60808 -0.16988,1.35963 -0.4235,3.28637 -0.60264,4.57831 -0.10854,0.78281 -0.073,1.04722 0.18281,1.36103 0.31904,0.39132 2.45923,1.63541 2.42784,1.41129 z m 10.97671,-3.47718 c -0.42808,-0.0212 -0.46021,0.0107 -0.27507,0.27064 0.0868,0.1217 0.16639,0.28214 0.17709,0.35653 0.0419,0.29116 0.15514,0.21614 0.28384,-0.18814 l 0.13476,-0.42337 z m 2.67615,-3.18216 c 0.6558,-0.81438 1.18925,-1.50283 1.18546,-1.52988 -0.004,-0.027 -0.98933,0.0503 -2.19011,0.17166 l -2.18321,0.22086 -0.65435,0.79316 c -0.64773,0.78516 -0.6529,0.7957 -0.51179,1.04604 0.50283,0.89197 0.78766,1.00775 2.15497,0.87593 l 1.00667,-0.097 z m -18.33162,2.4561 0.76193,-0.54755 0.14463,-1.09032 c 0.25979,-1.95839 0.34823,-2.74349 0.31216,-2.77131 -0.0195,-0.015 -0.81192,0.52969 -1.76094,1.21052 l -1.72547,1.23787 -0.141564,1.04333 c -0.0779,0.57382 -0.13143,1.04738 -0.11909,1.05233 0.0124,0.004 0.19674,0.11174 0.409704,0.23727 0.72761,0.42893 1.09321,0.36471 2.11856,-0.37214 z m -3.816448,-2.16274 c 0.0825,-0.62753 0.26941,-2.04935 0.41539,-3.1596 0.14598,-1.11024 0.28116,-2.17146 0.30039,-2.35825 0.0454,-0.44056 -0.13112,-0.79703 -0.54592,-1.10276 -0.574243,-0.42321 -2.034064,-1.22309 -2.089635,-1.14494 -0.02984,0.042 -0.08366,0.33256 -0.119605,0.6458 -0.03601,0.31323 -0.134529,1.08312 -0.219048,1.71086 -0.08453,0.62771 -0.233466,1.73392 -0.330984,2.45823 -0.09751,0.7243 -0.201692,1.59561 -0.231495,1.93629 -0.05199,0.59426 -0.04554,0.63038 0.159251,0.89125 0.117389,0.14956 0.712135,0.56213 1.321658,0.91685 0.915403,0.53274 1.115338,0.61905 1.149128,0.49607 0.0225,-0.082 0.1084,-0.66229 0.19087,-1.2898 z m 21.322208,-7.05422 c 0.0462,-0.15787 0.0699,-0.38844 0.0528,-0.51234 -0.0314,-0.22423 -1.12868,-2.14542 -1.307,-2.2884 -0.10527,-0.0844 -4.42705,5.21665 -4.58195,5.62019 -0.15652,0.40786 -0.0447,0.73705 0.63988,1.88461 l 0.65766,1.10238 2.22737,-2.75969 c 1.22505,-1.51782 2.26522,-2.88885 2.31148,-3.04671 z m -25.929947,3.90456 c 0.578846,-0.30208 0.470589,0.10007 0.937781,-3.48319 l 0.0999,-0.76619 -0.340266,0.21639 c -0.187145,0.11902 -0.429568,0.2921 -0.538718,0.38464 -0.109149,0.0925 -0.398944,0.30612 -0.643987,0.47461 -1.207493,0.83029 -3.711814,2.66551 -3.704882,2.71501 0.02471,0.17642 1.509668,0.78994 2.120845,0.87622 0.450565,0.0635 1.586651,-0.1656 2.069327,-0.41749 z m 21.544167,-5.48116 c 0.57339,-0.71851 1.12409,-1.41593 1.22376,-1.54979 l 0.18119,-0.24336 -2.21792,0.21817 -2.21793,0.21816 -0.67953,0.83074 -0.67949,0.83077 0.3351,0.48093 c 0.48342,0.69379 0.65197,0.74789 1.94322,0.62367 l 1.06908,-0.10285 z m -2.4948,-4.52675 c 1.94124,-2.4176 2.05735,-2.62122 1.8089,-3.17303 -0.17426,-0.38706 -1.21167,-2.08514 -1.27034,-2.07936 -0.13287,0.0131 -4.55046,5.62985 -4.6019,5.85111 -0.0938,0.40343 -0.0433,0.53497 0.64803,1.68844 l 0.65839,1.09849 0.46172,-0.55116 c 0.25395,-0.30314 1.28678,-1.57867 2.2952,-2.83449 z m -6.03726,-5.51125 c -0.16873,-0.13022 -0.25769,-0.28358 -0.28736,-0.49546 -0.0926,-0.66101 0.66534,-1.05597 1.21393,-0.63262 0.21888,0.16892 0.26125,0.41302 0.26202,0.72079 0.001,0.43583 -0.22396,0.52503 -0.64332,0.5663 -0.20265,0.0201 -0.38067,-0.0319 -0.54527,-0.15895 z"
         id="path164958"
         sodipodi:nodetypes="ccsscsccssccssssscsssccscssssscssccsssscscccssccsscssccssssccssscscssccsccsssscssssccscssssscscssscccccssssscccscsccsscccsscscscscssccccsssscsccccscscsssccccssccccccsccccccssscscsccssssscsssssssccssscsccsscsssscscscccccsscccsssscsccsscccc" />
      <path
         style="fill:#00d4df;fill-opacity:1;stroke:none;stroke-width:0.0254591;stroke-miterlimit:4;stroke-dasharray:none;stroke-opacity:1"
         d=""
         id="path166306" />
      <path
         style="fill:#b3b0b5;fill-opacity:1;stroke:#b3b0b5;stroke-width:0.00854493;stroke-miterlimit:4;stroke-dasharray:none;stroke-opacity:1"
         d="m 108.95935,246.88368 c -0.52485,0.01 -0.76301,-0.0109 -1.09589,-0.0949 -0.651,-0.16426 -1.24547,-0.51037 -1.7594,-1.02435 -0.25612,-0.25615 -0.52191,-0.62865 -0.96059,-1.34629 -0.1286,-0.21036 -0.30246,-0.5021 -0.30221,-0.50709 2.5e-4,-0.005 1.6982,-0.24791 1.69953,-0.243 0.0371,0.13684 0.0856,0.22724 0.17468,0.32566 0.1545,0.17069 0.35107,0.26738 0.56516,0.27799 0.17304,0.009 0.3638,-0.0365 0.49672,-0.11733 0.0194,-0.0118 0.0609,-0.045 0.0924,-0.0738 0.13582,-0.12451 0.20303,-0.28849 0.21535,-0.52551 0.003,-0.0616 0.007,-0.11269 0.008,-0.11354 10e-4,-0.001 1.84087,-0.26717 1.85142,-0.26768 0.001,-8e-5 0.004,0.0193 0.006,0.0431 0.0125,0.14355 0.0812,0.27086 0.22849,0.42353 0.13992,0.14504 0.261,0.23354 0.36392,0.26599 0.0511,0.0161 0.18859,0.0279 0.27402,0.0235 0.032,-0.002 0.15295,-0.011 0.26868,-0.0207 0.23573,-0.0199 0.32634,-0.0241 0.44108,-0.0207 0.0549,0.002 0.0778,0.005 0.0756,0.0115 -0.002,0.005 -0.0318,0.0489 -0.0668,0.0975 -0.21962,0.30486 -0.64831,0.85205 -1.35017,1.72339 -0.18617,0.23112 -0.47119,0.58511 -0.63338,0.78665 -0.16219,0.20154 -0.29633,0.36741 -0.29807,0.36859 -0.002,0.001 -0.13425,0.005 -0.29445,0.008 z"
         id="path244961" />
      <path
         style="fill:#b3b0b5;fill-opacity:1;stroke:#b3b0b5;stroke-width:0.00604218;stroke-miterlimit:4;stroke-dasharray:none;stroke-opacity:1"
         d="m 94.089539,259.41472 c -0.01265,0.007 -0.07027,0.0349 -0.12804,0.0621 -0.05776,0.0273 -0.125621,0.0599 -0.150794,0.0725 -0.101864,0.0511 -0.231574,0.10268 -0.373054,0.14843 -0.571485,0.1848 -1.31259,0.30147 -1.644328,0.25887 -0.459031,-0.0589 -1.602499,-0.49147 -1.993855,-0.75418 -0.03188,-0.0214 -0.06491,-0.0457 -0.0734,-0.0539 l -0.01543,-0.015 0.01908,-0.0189 c 0.02477,-0.0246 0.709877,-0.54741 0.912728,-0.69651 0.384646,-0.2827 0.488992,-0.35922 0.676119,-0.49578 0.746151,-0.54456 1.443273,-1.04227 2.016268,-1.43951 0.07856,-0.0545 0.183327,-0.12729 0.23282,-0.16185 0.0495,-0.0346 0.22371,-0.16542 0.387144,-0.29082 0.275997,-0.21178 0.367723,-0.27901 0.510386,-0.37411 0.05685,-0.0379 0.35051,-0.22565 0.356322,-0.22782 0.0035,-10e-4 -0.303477,2.36962 -0.353861,2.73302 -0.06039,0.43555 -0.105193,0.69808 -0.148945,0.8727 -0.03037,0.12123 -0.0748,0.23076 -0.115258,0.28414 -0.02053,0.0271 -0.08186,0.0792 -0.113895,0.0967 z"
         id="path251576" />
      <path
         style="fill:#b3b0b5;fill-opacity:1;stroke:#b3b0b5;stroke-width:0.00604218;stroke-miterlimit:4;stroke-dasharray:none;stroke-opacity:1"
         d="m 101.33372,265.40403 c -0.28058,0.10953 -0.51577,0.11168 -0.78937,0.007 -0.14254,-0.0544 -0.21696,-0.093 -0.50954,-0.26441 -0.105634,-0.0619 -0.203704,-0.1189 -0.217944,-0.12673 -0.0142,-0.008 -0.0271,-0.0168 -0.0285,-0.02 -0.007,-0.0147 0.0354,-0.39302 0.0913,-0.81819 0.0257,-0.19589 0.163624,-1.21293 0.165064,-1.2176 0.001,-0.004 0.6159,-0.44627 1.67668,-1.20623 0.8432,-0.60407 1.37751,-0.97554 1.71671,-1.19352 l 0.0128,-0.008 -0.003,0.0604 c -0.0148,0.26643 -0.0992,0.98005 -0.26398,2.23399 -0.0454,0.34527 -0.19388,1.4678 -0.1945,1.4703 -5.3e-4,0.002 -0.56645,0.40945 -0.76495,0.5508 -0.41158,0.29309 -0.66316,0.44344 -0.89042,0.53215 z"
         id="path251615" />
      <path
         style="fill:#b3b0b5;fill-opacity:1;stroke:#b3b0b5;stroke-width:0.00854493;stroke-miterlimit:4;stroke-dasharray:none;stroke-opacity:1"
         d="m 111.57035,269.42152 c -0.32439,0.23313 -0.79861,0.56886 -0.87563,0.61993 -0.37167,0.24646 -0.68833,0.4195 -0.82571,0.45125 -0.11124,0.0257 -0.26426,0.0202 -0.44186,-0.0157 -0.16811,-0.0341 -0.42845,-0.12912 -0.60656,-0.22148 -0.0775,-0.0402 -0.36987,-0.21433 -0.38129,-0.2271 -0.002,-0.002 0.006,-0.0753 0.0178,-0.16186 0.012,-0.0866 0.0461,-0.33733 0.0759,-0.55727 0.10037,-0.74205 0.12641,-0.89983 0.17383,-1.053 0.0553,-0.17854 0.12803,-0.2791 0.30541,-0.42211 0.10074,-0.0812 0.86527,-0.64261 1.29722,-0.95255 0.1792,-0.12858 0.22256,-0.15936 0.54067,-0.38379 0.28848,-0.20352 0.44193,-0.31369 0.63593,-0.45653 0.12496,-0.092 0.18493,-0.1377 0.43295,-0.32982 0.0877,-0.0679 0.19016,-0.13709 0.2026,-0.13676 0.0138,2.7e-4 -0.008,0.2931 -0.0479,0.6397 -0.0851,0.74205 -0.37373,2.83583 -0.43111,3.12796 l -0.006,0.0318 z"
         id="path251654" />
      <path
         style="fill:#b3b0b5;fill-opacity:1;stroke:#b3b0b5;stroke-width:0.00604218;stroke-miterlimit:4;stroke-dasharray:none;stroke-opacity:1"
         d="m 118.81042,263.93281 c -0.70259,0.067 -0.83546,0.0774 -1.05132,0.0826 -0.66963,0.0161 -0.95924,-0.11328 -1.27008,-0.56726 -0.0927,-0.13544 -0.23911,-0.38666 -0.25822,-0.44319 -0.0413,-0.12204 0.0139,-0.21162 0.47699,-0.77458 0.0839,-0.10194 0.28228,-0.34269 0.44095,-0.53499 l 0.28847,-0.34965 1.0948,-0.11071 c 1.21225,-0.12259 1.38708,-0.14 1.72276,-0.17152 0.60688,-0.057 1.15299,-0.10081 1.36888,-0.10982 0.0413,-0.002 0.0776,-0.004 0.0806,-0.004 0.003,-5.3e-4 -0.002,0.009 -0.0115,0.022 -0.32415,0.43561 -0.58914,0.77122 -1.60184,2.0287 -0.31241,0.38793 -0.59836,0.7432 -0.63544,0.78948 l -0.0674,0.0841 -0.0225,0.004 c -0.0124,0.002 -0.26219,0.0269 -0.55516,0.0548 z"
         id="path251693" />
      <path
         style="fill:#b3b0b5;fill-opacity:1;stroke:#b3b0b5;stroke-width:0.00604218;stroke-miterlimit:4;stroke-dasharray:none;stroke-opacity:1"
         d="m 113.86735,255.40983 c -0.71768,0.068 -0.77384,0.0732 -0.90266,0.0838 -0.37071,0.0303 -0.59419,0.0323 -0.77518,0.007 -0.29791,-0.0421 -0.47344,-0.16522 -0.72294,-0.50713 -0.0488,-0.0669 -0.40736,-0.57926 -0.40813,-0.58323 -2.6e-4,-0.001 0.20457,-0.25224 1.11579,-1.36631 0.20145,-0.24629 0.20928,-0.2552 0.22523,-0.25638 0.009,-8e-4 0.19217,-0.0186 0.40685,-0.0398 0.3985,-0.0394 0.88683,-0.0875 1.40847,-0.13873 0.16071,-0.0158 0.35897,-0.0353 0.44057,-0.0434 0.0816,-0.008 0.33329,-0.0328 0.5593,-0.055 0.22601,-0.0222 0.55371,-0.0544 0.72823,-0.0716 0.17451,-0.0172 0.35942,-0.0354 0.41091,-0.0404 0.0515,-0.005 0.14083,-0.014 0.19855,-0.0198 0.0577,-0.006 0.11308,-0.0108 0.12302,-0.0109 l 0.0181,-2e-4 -0.0604,0.0817 c -0.16508,0.22334 -0.562,0.72556 -1.774,2.24459 -0.36414,0.4564 -0.5368,0.66941 -0.54433,0.67155 -0.006,0.002 -0.20737,0.0217 -0.44734,0.0445 z"
         id="path251732" />
      <path
         style="fill:#d8ec84;fill-opacity:1;stroke:#d8ec84;stroke-width:0.00854493;stroke-miterlimit:4;stroke-dasharray:none;stroke-opacity:1"
         d="m 110.14074,252.8759 c -0.003,-0.005 -0.16572,-0.27701 -0.36213,-0.60464 -0.39983,-0.66698 -0.56777,-0.95155 -0.65914,-1.11692 -0.18964,-0.34323 -0.25629,-0.50653 -0.27162,-0.66539 -0.0117,-0.12186 0.0117,-0.27608 0.0523,-0.34453 0.23978,-0.40385 2.73254,-3.60873 3.99098,-5.13109 0.35093,-0.42453 0.51466,-0.61478 0.53494,-0.62161 0.0419,-0.0141 0.9147,1.407 1.18562,1.93035 0.10178,0.19663 0.14339,0.33143 0.13993,0.45333 -0.008,0.27568 -0.21672,0.63232 -0.85805,1.46489 -0.24606,0.31943 -0.62282,0.79367 -1.25595,1.58088 -0.98721,1.22747 -1.33419,1.6555 -1.89533,2.33807 -0.52643,0.64036 -0.59711,0.72456 -0.60155,0.71666 z"
         id="path251888" />
      <path
         style="fill:#d8ec84;fill-opacity:1;stroke:#d8ec84;stroke-width:0.00854493;stroke-miterlimit:4;stroke-dasharray:none;stroke-opacity:1"
         d="m 115.23784,261.39686 c -0.003,-0.006 -0.14332,-0.24102 -0.31132,-0.52266 -0.47894,-0.80292 -0.51076,-0.85736 -0.6533,-1.1175 -0.28993,-0.52917 -0.38026,-0.81569 -0.33794,-1.07187 0.0114,-0.0691 0.0408,-0.15989 0.0672,-0.20784 0.12219,-0.22151 0.77678,-1.07398 1.85678,-2.41807 0.42938,-0.53438 1.75451,-2.13263 2.02847,-2.44654 0.36667,-0.42015 0.59896,-0.67129 0.623,-0.67353 0.0149,-0.001 0.13678,0.17635 0.29194,0.42589 0.3395,0.54603 0.77353,1.3282 0.92279,1.66295 0.052,0.11652 0.0534,0.1214 0.0582,0.19364 0.007,0.10886 -0.0134,0.29535 -0.0458,0.41569 -0.017,0.0633 -0.0824,0.16798 -0.25917,0.41483 -0.47002,0.65652 -1.22221,1.6194 -2.53218,3.24144 -0.17747,0.21975 -0.52163,0.64618 -0.7648,0.94761 -0.24316,0.30143 -0.5494,0.68 -0.68053,0.84126 -0.13112,0.16126 -0.2427,0.30043 -0.24795,0.30925 -0.008,0.0135 -0.0105,0.0143 -0.0154,0.005 z"
         id="path252001" />
      <path
         style="fill:#d8ec84;fill-opacity:1;stroke:#d8ec84;stroke-width:0.00854493;stroke-miterlimit:4;stroke-dasharray:none;stroke-opacity:1"
         d="m 120.31396,269.83923 c -0.008,-0.007 -0.17688,-0.25119 -0.21825,-0.31626 -0.22913,-0.36041 -0.41437,-0.84251 -0.50241,-1.30761 -0.16401,-0.86637 -0.0374,-1.74809 0.32789,-2.28319 0.22202,-0.32526 1.00062,-1.33313 1.89155,-2.44856 0.21599,-0.27041 0.40703,-0.50915 1.29875,-1.62302 0.21929,-0.27393 0.40132,-0.49829 0.4045,-0.49859 0.0109,-0.001 0.42537,0.6796 0.43103,0.70778 0.004,0.0177 0.12277,0.21293 0.31635,0.51803 0.30484,0.48044 0.38319,0.61415 0.45367,0.7742 0.20625,0.46834 0.10879,0.79113 -0.47757,1.58186 -0.19977,0.26938 -0.42348,0.55335 -1.12477,1.42768 -0.90841,1.13256 -1.62647,2.02438 -2.09462,2.60148 -0.20481,0.25247 -0.44672,0.55127 -0.53758,0.664 -0.0909,0.11273 -0.1667,0.20372 -0.16854,0.2022 z"
         id="path252040" />
      <path
         style="fill:#91def5;fill-opacity:1;stroke:#91def5;stroke-width:0.0120843;stroke-miterlimit:4;stroke-dasharray:none;stroke-opacity:1"
         d="m 115.5794,273.97404 c -0.0177,0.0927 -0.0352,0.17076 -0.0389,0.17351 -0.0349,0.0258 -0.54017,-0.30665 -0.90973,-0.59868 -0.84977,-0.67149 -1.1743,-1.18986 -1.34577,-2.14961 -0.0963,-0.53929 -0.0797,-1.01751 0.0817,-2.35225 0.13867,-1.14683 0.4974,-3.75038 0.53331,-3.87069 l 0.015,-0.0503 0.10016,0.0521 c 0.20955,0.10901 0.89824,0.49853 1.26654,0.71634 0.39867,0.23577 0.63452,0.39383 0.77677,0.52057 0.17488,0.15582 0.35964,0.46965 0.386,0.65568 0.01,0.071 0.007,0.22963 -0.009,0.40604 -0.014,0.16039 -0.0907,0.75545 -0.23896,1.85338 -0.14267,1.05661 -0.3255,2.46851 -0.42829,3.30734 -0.0609,0.49711 -0.15256,1.1449 -0.1891,1.33658 z"
         id="path252268" />
      <path
         style="fill:#91def5;fill-opacity:1;stroke:#91def5;stroke-width:0.00854493;stroke-miterlimit:4;stroke-dasharray:none;stroke-opacity:1"
         d="m 106.88528,269.07488 c -0.17823,-0.0266 -0.93546,-0.4341 -1.59469,-0.85825 -0.14147,-0.091 -0.42612,-0.29077 -0.52031,-0.36511 -0.19285,-0.1522 -0.29736,-0.27745 -0.37001,-0.44346 -0.0551,-0.12592 -0.0795,-0.30083 -0.0716,-0.51333 0.007,-0.1984 0.0207,-0.31088 0.14078,-1.1905 0.16317,-1.19512 0.3379,-2.52968 0.51831,-3.95885 0.16025,-1.26952 0.20739,-1.62604 0.21803,-1.64921 0.008,-0.0167 0.0112,-0.0181 0.0397,-0.0157 0.0813,0.007 0.25808,0.0967 0.81052,0.41224 0.29918,0.17088 0.44069,0.25362 0.60675,0.35477 0.67649,0.41204 0.97309,0.6821 1.06944,0.97373 0.0378,0.11423 0.041,0.16093 0.0252,0.35642 -0.048,0.59108 -0.21204,1.96067 -0.46921,3.91718 -0.0394,0.29945 -0.0824,0.62808 -0.0955,0.73028 -0.0132,0.1022 -0.0538,0.41501 -0.0903,0.69514 -0.12368,0.94961 -0.19013,1.47035 -0.1932,1.51413 l -0.003,0.0436 z"
         id="path252478" />
      <path
         style="fill:#91def5;fill-opacity:1;stroke:#91def5;stroke-width:0.00854493;stroke-miterlimit:4;stroke-dasharray:none;stroke-opacity:1"
         d="m 98.221562,263.98966 -0.009,0.0345 -0.0542,-0.009 c -0.108885,-0.0176 -0.318155,-0.12364 -0.856828,-0.43428 -0.45671,-0.26338 -0.763984,-0.45666 -1.068231,-0.67196 -0.254598,-0.18016 -0.357831,-0.2682 -0.439698,-0.37498 -0.145304,-0.18952 -0.159086,-0.26263 -0.126087,-0.66887 0.04502,-0.55427 0.121428,-1.17505 0.389144,-3.16174 0.25151,-1.86641 0.325635,-2.43117 0.387998,-2.95618 0.04408,-0.37113 0.101637,-0.71689 0.121819,-0.73184 0.01349,-0.01 0.184301,0.0622 0.390507,0.16517 0.490611,0.2449 1.164856,0.63925 1.543896,0.90298 0.13224,0.092 0.21825,0.16139 0.30216,0.24373 0.0665,0.0652 0.18717,0.23098 0.224,0.30758 0.0805,0.16753 0.11193,0.33917 0.0983,0.53711 -0.0105,0.15229 -0.12628,1.05558 -0.50757,3.96045 -0.20505,1.56222 -0.37286,2.77384 -0.3957,2.85707 z"
         id="path252517" />
    </g>
  </g>
</svg>
